# Blender v2.93.5 OBJ File: 'polkaa.blend'
# www.blender.org
mtllib polka2.mtl
o Куб.002
v 1.390349 3.115278 3.352191
v -1.390349 3.115278 3.352191
v 1.390349 3.651305 3.352191
v -1.390349 3.651305 3.352191
v 2.545393 2.066432 -3.361858
v -2.545393 2.066432 -3.361858
v 2.545393 4.700152 -3.361858
v -2.545393 4.700152 -3.361858
v 2.246666 2.403797 2.840971
v -2.246666 2.403797 2.840971
v 2.246666 4.700152 2.840971
v -2.246666 4.700152 2.840971
v 2.246666 2.403797 -3.024493
v -2.246666 2.403797 -3.024493
v 2.246666 4.700152 -3.024493
v -2.246666 4.700152 -3.024493
v 2.545393 2.066432 3.352191
v -2.545393 2.066432 3.352191
v 2.545393 4.700152 3.352191
v -2.545393 4.700152 3.352191
v 1.390349 3.115278 3.840580
v -1.390349 3.115278 3.840580
v 1.390349 3.651305 3.840580
v -1.390349 3.651305 3.840580
v -1.261572 2.295951 3.352191
v -1.261572 4.295951 3.352191
v 1.261572 2.295951 3.352191
v 1.261572 4.295951 3.352191
v -1.261572 3.651305 3.685102
v -1.261572 3.651305 3.352191
v 1.261572 3.651305 3.352191
v 1.261572 3.651305 3.685102
v -1.261572 3.115278 3.352191
v 1.261572 3.115278 3.685102
v 1.261572 3.115278 3.352191
v -1.261572 3.115278 3.685102
v -1.261572 2.408561 3.352191
v -1.047555 2.465595 3.352191
vt 0.486111 0.916667
vt 0.486111 0.916667
vt 0.458333 0.916667
vt 0.458333 0.916667
vt 0.458333 0.833333
vt 0.486111 0.833333
vt 0.458333 0.833333
vt 0.486111 0.833333
vt 0.475049 0.899013
vt 0.475049 0.901464
vt 0.475049 0.901464
vt 0.475049 0.848536
vt 0.475049 0.848536
vt 0.475049 0.850987
vt 0.475049 0.850987
vt 0.475049 0.899013
vt 0.469395 0.848536
vt 0.469395 0.848536
vt 0.469395 0.901464
vt 0.469395 0.901464
vt 0.469395 0.899013
vt 0.469395 0.899013
vt 0.469395 0.850987
vt 0.469395 0.850987
vt 0.486111 0.916667
vt 0.458333 0.916667
vt 0.458333 0.916667
vt 0.486111 0.916667
vt 0.458333 0.833333
vt 0.486111 0.833333
vt 0.458333 0.833333
vt 0.486111 0.833333
vt 0.461942 0.896577
vt 0.460754 0.853752
vt 0.460754 0.896248
vt 0.462543 0.893097
vt 0.481848 0.853231
vt 0.481848 0.896769
vt 0.477416 0.250000
vt 0.544419 0.250000
vt 0.544419 0.000000
vt 0.477416 0.000000
vt 0.477416 0.500000
vt 0.544419 0.500000
vt 0.544419 0.750000
vt 0.477416 0.750000
vt 0.544419 1.000000
vt 0.477416 1.000000
vn -1.0000 0.0000 0.0000
vn 0.0000 0.0000 -1.0000
vn 1.0000 0.0000 0.0000
vn 0.0000 -1.0000 0.0000
vn 0.0000 1.0000 0.0000
vn 0.0000 0.0000 1.0000
usemtl None
s off
f 20/1/1 8/2/1 6/3/1 18/4/1
f 5/5/2 6/3/2 8/2/2 7/6/2
f 17/7/3 5/5/3 7/6/3 19/8/3
f 18/4/4 6/3/4 5/5/4 17/7/4
f 30/9/5 4/10/5 24/11/5 23/12/5 3/13/5 31/14/5 32/15/5 29/16/5
f 1/17/4 21/18/4 22/19/4 2/20/4 33/21/4 36/22/4 34/23/4 35/24/4
f 12/25/3 10/26/3 14/27/3 16/28/3
f 13/29/6 15/30/6 16/28/6 14/27/6
f 9/31/1 11/32/1 15/30/1 13/29/1
f 10/26/5 9/31/5 13/29/5 14/27/5
f 10/26/2 12/25/2 11/32/2 9/31/2
f 19/8/5 7/6/5 15/30/5 11/32/5
f 7/6/5 8/2/5 16/28/5 15/30/5
f 8/2/5 20/1/5 12/25/5 16/28/5
f 20/1/5 19/8/5 11/32/5 12/25/5
f 37/33/6 33/21/6 2/20/6 18/4/6 17/7/6 1/17/6 35/24/6 27/34/6 25/35/6
f 35/24/6 33/21/6 37/33/6 38/36/6 25/35/6 27/34/6
f 37/33/6 25/35/6 38/36/6
f 3/13/6 1/17/6 17/7/6 19/8/6
f 2/20/6 4/10/6 20/1/6 18/4/6
f 28/37/6 31/14/6 3/13/6 19/8/6 20/1/6 4/10/6 30/9/6 26/38/6
f 30/9/6 31/14/6 28/37/6 26/38/6
f 22/19/6 21/18/6 23/12/6 24/11/6
f 4/10/1 2/20/1 22/19/1 24/11/1
f 1/17/3 3/13/3 23/12/3 21/18/3
f 33/39/3 30/40/3 29/41/3 36/42/3
f 30/40/6 33/39/6 35/43/6 31/44/6
f 32/45/1 31/44/1 35/43/1 34/46/1
f 29/47/2 32/45/2 34/46/2 36/48/2
